HIERARCHY
ROOT Hips
{
	OFFSET 0.000000 0.000000 0.000000
	CHANNELS 6 Xposition Yposition Zposition Xrotation Yrotation Zrotation
	JOINT LeftUpLeg_virtual
	{
		OFFSET 0.000000 0.000000 0.000000
		CHANNELS 3 Xrotation Yrotation Zrotation
		JOINT LeftUpLeg
		{
			OFFSET 15.427100 -6.655098 0.678600
			CHANNELS 3 Xrotation Yrotation Zrotation
			JOINT LeftLeg
			{
				OFFSET 4.081073 -39.591068 13.024000
				CHANNELS 3 Xrotation Yrotation Zrotation
				JOINT LeftFoot
				{
					OFFSET -4.081074 -37.707932 -15.979700
					CHANNELS 3 Xrotation Yrotation Zrotation
					JOINT LeftToeBase
					{
						OFFSET 5.346399 -15.068900 20.645000
						CHANNELS 3 Xrotation Yrotation Zrotation
						JOINT LeftToe_End
						{
							OFFSET 2.754700 0.931300 11.300900
							CHANNELS 3 Xrotation Yrotation Zrotation
							End Site
							{
								OFFSET 0 0 0
							}
						}
					}
				}
			}
		}
	}
	JOINT RightUpLeg_virtual
	{
		OFFSET 0.000000 0.000000 0.000000
		CHANNELS 3 Xrotation Yrotation Zrotation
		JOINT RightUpLeg
		{
			OFFSET -15.569500 -6.655098 0.678600
			CHANNELS 3 Xrotation Yrotation Zrotation
			JOINT RightLeg
			{
				OFFSET -4.081825 -39.591045 13.023800
				CHANNELS 3 Xrotation Yrotation Zrotation
				JOINT RightFoot
				{
					OFFSET 4.081824 -37.707954 -15.979600
					CHANNELS 3 Xrotation Yrotation Zrotation
					JOINT RightToeBase
					{
						OFFSET -5.346400 -15.068900 20.645000
						CHANNELS 3 Xrotation Yrotation Zrotation
						JOINT RightToe_End
						{
							OFFSET -2.754700 0.931300 11.300900
							CHANNELS 3 Xrotation Yrotation Zrotation
							End Site
							{
								OFFSET 0 0 0
							}
						}
					}
				}
			}
		}
	}
	JOINT Spine_virtual
	{
		OFFSET 0.000000 0.000000 0.000000
		CHANNELS 3 Xrotation Yrotation Zrotation
		JOINT Spine
		{
			OFFSET -0.279200 12.230698 -2.892100
			CHANNELS 3 Xrotation Yrotation Zrotation
			JOINT Spine1
			{
				OFFSET -0.232667 10.192268 -1.242267
				CHANNELS 3 Xrotation Yrotation Zrotation
				JOINT Spine1_split
				{
					OFFSET -0.232667 10.192268 -1.242267
					CHANNELS 3 Xrotation Yrotation Zrotation
					JOINT Spine2
					{
						OFFSET -0.232667 10.192268 -1.242267
						CHANNELS 3 Xrotation Yrotation Zrotation
						JOINT Neck_virtual
						{
							OFFSET 0.000000 0.000000 0.000000
							CHANNELS 3 Xrotation Yrotation Zrotation
							JOINT Neck
							{
								OFFSET -0.418800 17.814194 8.416900
								CHANNELS 3 Xrotation Yrotation Zrotation
								JOINT Head
								{
									OFFSET 0.000000 7.031097 3.806800
									CHANNELS 3 Xrotation Yrotation Zrotation
									JOINT HeadTop_End
									{
										OFFSET 0.000000 24.646606 12.978600
										CHANNELS 3 Xrotation Yrotation Zrotation
										End Site
										{
											OFFSET 0 0 0
										}
									}
								}
							}
						}
						JOINT LeftShoulder_virtual
						{
							OFFSET 0.000000 0.000000 0.000000
							CHANNELS 3 Xrotation Yrotation Zrotation
							JOINT LeftShoulder
							{
								OFFSET 8.476499 7.247704 -3.868750
								CHANNELS 3 Xrotation Yrotation Zrotation
								JOINT LeftShoulder_split
								{
									OFFSET 8.476499 7.247704 -3.868750
									CHANNELS 3 Xrotation Yrotation Zrotation
									JOINT LeftArm
									{
										OFFSET 9.308998 -2.777710 0.208600
										CHANNELS 3 Xrotation Yrotation Zrotation
										JOINT LeftForeArm
										{
											OFFSET 29.972298 0.000000 0.000000
											CHANNELS 3 Xrotation Yrotation Zrotation
											JOINT LeftHand
											{
												OFFSET 26.026505 0.000000 0.000000
												CHANNELS 3 Xrotation Yrotation Zrotation
												End Site
												{
													OFFSET 0 0 0
												}
											}
										}
									}
								}
							}
						}
						JOINT RightShoulder_virtual
						{
							OFFSET 0.000000 0.000000 0.000000
							CHANNELS 3 Xrotation Yrotation Zrotation
							JOINT RightShoulder
							{
								OFFSET -7.570500 7.247704 -3.868750
								CHANNELS 3 Xrotation Yrotation Zrotation
								JOINT RightShoulder_split
								{
									OFFSET -7.570500 7.247704 -3.868750
									CHANNELS 3 Xrotation Yrotation Zrotation
									JOINT RightArm
									{
										OFFSET -9.308998 -2.777710 0.208500
										CHANNELS 3 Xrotation Yrotation Zrotation
										JOINT RightForeArm
										{
											OFFSET -29.972300 0.000000 0.000000
											CHANNELS 3 Xrotation Yrotation Zrotation
											JOINT RightHand
											{
												OFFSET -26.026505 0.000000 0.000000
												CHANNELS 3 Xrotation Yrotation Zrotation
												End Site
												{
													OFFSET 0 0 0
												}
											}
										}
									}
								}
							}
						}
					}
				}
			}
		}
	}
}
MOTION
Frames: 6
Frame Time: 0.03333333
23.742626 82.635872 6.458336 0.000000 0.000000 0.000000 156.611183 -65.524853 162.991782 -53.367191 42.649409 48.701516 35.631338 -2.729429 -6.268407 3.496648 10.491741 -3.399875 2.070224 7.197092 -15.478978 0.000000 0.000000 0.000000 158.060508 -65.869170 165.978282 -39.326204 -17.626013 -33.468163 29.515959 -4.607019 -0.092465 -14.406334 -3.597715 10.802986 4.309058 4.753240 1.126919 0.000000 0.000000 0.000000 150.013726 -68.787443 155.883618 10.620919 -3.361440 -0.938074 5.440945 -3.128189 -2.800508 0.337808 -1.518713 0.952722 0.000000 0.000000 0.000000 -1.722391 -4.880570 -1.921311 4.645639 14.372817 -2.349597 -15.275633 11.224852 -3.270832 0.000000 0.000000 0.000000 -1.627929 -5.409245 -1.577292 -1.130881 -9.864303 -5.540227 0.350454 0.630994 0.808374 -25.133525 -14.224412 -47.847620 -14.561516 -28.044847 -14.616359 0.000000 0.000000 0.000000 -3.478284 -5.654463 -1.876782 -5.531832 19.167384 3.733192 1.357746 -3.503810 0.186252 -12.557112 -11.074135 60.463416 10.584231 38.231034 -2.125816 0.000000 0.000000 0.000000 
24.045895 82.382996 4.988075 0.000000 0.000000 0.000000 156.446740 -63.839838 163.041847 -56.488738 41.052712 51.022828 37.543006 -5.824046 -6.043180 8.198413 8.338892 -1.108084 -0.241612 8.242782 -18.911694 0.000000 0.000000 0.000000 158.503924 -63.252374 166.654621 -40.870974 -17.489960 -32.931948 30.277108 -3.564378 0.572799 -15.747630 -1.987544 10.899901 3.989776 5.128966 0.923795 0.000000 0.000000 0.000000 150.526987 -66.301630 156.713623 10.864079 -3.339154 -1.193317 4.725273 -2.203953 -2.906854 0.436875 -1.826174 0.824908 0.000000 0.000000 0.000000 -2.479410 -3.879211 -1.994811 3.974768 15.967445 -3.412327 -15.701828 12.796367 -3.306982 0.000000 0.000000 0.000000 -2.385395 -4.354521 -1.688930 -0.949636 -9.400157 -5.621866 0.358494 0.443315 0.475825 -25.510029 -15.703573 -47.995907 -15.777908 -30.483742 -14.843912 0.000000 0.000000 0.000000 -4.122312 -4.582441 -1.967088 -5.656765 18.999710 3.653200 1.353458 -3.433835 -0.035148 -11.883393 -11.236380 60.722144 12.757575 38.098782 -3.464863 0.000000 0.000000 0.000000 
24.232071 82.189735 3.776321 0.000000 0.000000 0.000000 156.535723 -62.405307 163.215689 -58.675205 39.972203 52.368495 38.583144 -8.571927 -5.632705 11.533356 6.705884 1.880713 -2.020267 8.590817 -20.964548 0.000000 0.000000 0.000000 158.927369 -60.972436 167.215626 -41.717050 -17.050710 -32.384488 31.337092 -2.604901 1.125415 -17.548926 -0.590290 10.710374 4.009577 5.278048 1.099322 0.000000 0.000000 0.000000 151.112867 -64.118100 157.561071 11.191979 -3.259972 -1.283461 4.059758 -1.314900 -3.093600 0.578785 -2.186588 0.763829 0.000000 0.000000 0.000000 -3.220691 -2.915186 -2.123424 3.451427 17.457590 -4.273912 -15.870240 14.167638 -3.282087 0.000000 0.000000 0.000000 -3.114275 -3.343205 -1.870196 -0.803325 -9.106781 -5.617329 0.635907 0.325818 0.251786 -25.877025 -15.756569 -48.346575 -17.123851 -32.955984 -15.243474 0.000000 0.000000 0.000000 -4.725427 -3.546976 -2.121333 -5.704812 18.821541 3.459408 1.243054 -3.359722 -0.232964 -10.857519 -11.428583 60.874703 14.594702 37.971873 -4.604655 0.000000 0.000000 0.000000 
24.259693 82.057388 2.692902 0.000000 0.000000 0.000000 156.818848 -61.120043 163.429228 -60.529956 39.117313 53.358824 38.765890 -11.031952 -5.338515 13.170200 5.441028 4.619429 -1.096386 7.704528 -21.749295 0.000000 0.000000 0.000000 159.302824 -59.042450 167.632459 -41.799330 -16.328539 -31.795521 32.643608 -1.893627 1.555434 -19.888331 0.518280 10.079406 4.763638 5.244411 1.456017 0.000000 0.000000 0.000000 151.873464 -62.160377 158.474049 11.617179 -3.156721 -1.197243 3.451708 -0.491085 -3.340610 0.668933 -2.498096 0.755472 0.000000 0.000000 0.000000 -3.938985 -2.020095 -2.307618 3.074199 18.773239 -4.929018 -15.772162 15.302369 -3.159116 0.000000 0.000000 0.000000 -3.809517 -2.396311 -2.107041 -0.708505 -8.946954 -5.593314 1.086128 0.283668 0.116128 -26.149108 -14.533954 -48.698972 -18.469540 -35.270014 -15.727928 0.000000 0.000000 0.000000 -5.293359 -2.589048 -2.346236 -5.677554 18.609931 3.192373 1.060804 -3.421205 -0.405526 -9.628968 -11.605535 60.794619 15.986082 37.864561 -5.466935 0.000000 0.000000 0.000000 
24.041662 81.957275 1.816471 0.000000 0.000000 0.000000 157.359239 -59.808278 163.820243 -62.857302 37.877579 54.632600 38.834287 -13.521308 -5.276546 14.679111 4.025588 5.930445 2.198755 5.594970 -20.776592 0.000000 0.000000 0.000000 159.628816 -57.398246 167.900762 -41.383372 -15.196186 -31.209716 34.062085 -1.293854 1.884990 -22.359475 1.444612 9.463527 5.681607 5.085368 1.837137 0.000000 0.000000 0.000000 152.703741 -60.393646 159.253920 12.123676 -3.028780 -0.937400 2.906762 0.268262 -3.628437 0.619229 -2.621219 0.952015 0.000000 0.000000 0.000000 -4.601352 -1.191325 -2.531714 2.854583 19.862581 -5.418626 -15.444709 16.135695 -2.897601 0.000000 0.000000 0.000000 -4.479995 -1.509609 -2.382365 -0.670933 -8.924146 -5.598914 1.704281 0.326465 0.063753 -26.200718 -12.426999 -48.977774 -19.695059 -37.247405 -16.171180 0.000000 0.000000 0.000000 -5.822630 -1.706880 -2.628099 -5.610483 18.385744 2.962206 0.816765 -3.582751 -0.557429 -8.248489 -11.692707 60.474085 16.803172 37.643119 -5.966508 0.000000 0.000000 0.000000 
23.560305 81.831802 1.007595 0.000000 0.000000 0.000000 158.182059 -58.414974 164.446380 -64.981580 36.009748 55.550513 39.093609 -16.188744 -5.271651 16.801190 2.198740 5.677170 4.391154 3.068528 -17.034442 0.000000 0.000000 0.000000 160.153224 -55.717770 168.310205 -40.880981 -13.769261 -30.750922 35.335307 -0.687402 2.128294 -24.193596 2.211337 9.347194 5.988709 4.846818 2.090157 0.000000 0.000000 0.000000 153.709036 -58.687458 160.035062 12.675482 -2.854324 -0.567040 2.415080 1.005447 -3.927602 0.517451 -2.715644 1.139810 0.000000 0.000000 0.000000 -5.179603 -0.400996 -2.772044 2.810742 20.663146 -5.847316 -14.991072 16.596460 -2.487163 0.000000 0.000000 0.000000 -5.118405 -0.657985 -2.673417 -0.679474 -8.994455 -5.692556 2.452803 0.277701 0.033846 -25.895440 -9.932332 -49.088512 -20.675932 -38.824305 -16.490542 0.000000 0.000000 0.000000 -6.330438 -0.881985 -2.932588 -5.503664 18.157593 2.836596 0.466984 -3.746715 -0.594611 -6.701881 -11.759268 59.992044 16.948746 37.041079 -6.032125 0.000000 0.000000 0.000000 
